<svg xmlns="http://www.w3.org/2000/svg" width="12.25" height="12.25" viewBox="0 0 12.25 12.25">
  <g id="Add_Meta_Data" data-name="Add Meta Data" transform="translate(-2 -2)">
    <path id="Path_20237" data-name="Path 20237" d="M18.25,15.5H13.875v.875H18.25a.438.438,0,0,0,0-.875Zm0-1.75H13.875v.875H18.25a.438.438,0,0,0,0-.875Zm0-1.75H13.875v.875H18.25a.438.438,0,0,0,0-.875Zm0,6.125H13.438a.438.438,0,0,1,0-.875H18.25a.438.438,0,0,1,0,.875Z" transform="translate(-6.188 -5.625)" fill="#646768"/>
    <path id="Path_20238" data-name="Path 20238" d="M18.059,4.316,15.872,2.128A.437.437,0,0,0,15.563,2H9.438A.437.437,0,0,0,9,2.438v1.75h.875V2.875h4.813V5.063a.437.437,0,0,0,.438.438h2.188v7.875H9.875v-1.75H9v2.188a.437.437,0,0,0,.438.438H17.75a.437.437,0,0,0,.438-.437V4.625a.437.437,0,0,0-.128-.309Zm-2.5-1.26,1.569,1.569H15.563Z" transform="translate(-3.938)" fill="#646768"/>
    <path id="Path_20239" data-name="Path 20239" d="M7.25,14.125V8.438A.437.437,0,0,0,6.813,8H3.75a.437.437,0,0,0-.309.128L2.128,9.441A.438.438,0,0,0,2,9.75v4.375a.437.437,0,0,0,.438.438H6.813A.437.437,0,0,0,7.25,14.125ZM3.75,9.056V9.75H3.056Zm2.625,4.631h-3.5V10.625H4.188a.437.437,0,0,0,.438-.437V8.875h1.75Z" transform="translate(0 -3.375)" fill="#646768"/>
    <path id="Path_20240" data-name="Path 20240" d="M7.188,15.875H5.438a.438.438,0,0,1,0-.875h1.75a.438.438,0,0,1,0,.875Zm0,1.313H5.438a.438.438,0,0,1,0-.875h1.75a.438.438,0,0,1,0,.875Z" transform="translate(-1.688 -7.313)" fill="#646768"/>
  </g>
</svg>
