<svg xmlns="http://www.w3.org/2000/svg" width="28.213" height="27.667" viewBox="0 0 28.213 27.667">
  <g id="Delete" transform="translate(-17 -17.637)">
    <path id="Path_17913" data-name="Path 17913" d="M18.283,25.358h2.433V41.349A3.958,3.958,0,0,0,24.669,45.3H37.689a3.958,3.958,0,0,0,3.954-3.954V25.358h2.288a1.282,1.282,0,1,0,0-2.565h-6V20.146a2.511,2.511,0,0,0-2.51-2.51l-8.474,0a2.511,2.511,0,0,0-2.51,2.51v2.647H22l-3.719,0a1.282,1.282,0,1,0,0,2.565ZM27,20.2h8.366v2.59H27Zm-1.282,5.155H39.08V41.349a1.392,1.392,0,0,1-1.389,1.389H24.67a1.392,1.392,0,0,1-1.389-1.389V25.358Z" transform="translate(0 0)" fill="#6b6b6b"/>
    <path id="Path_17914" data-name="Path 17914" d="M54.391,54.016a1.281,1.281,0,0,0,1.282-1.282v-7.5a1.282,1.282,0,0,0-2.565,0v7.5A1.281,1.281,0,0,0,54.391,54.016Z" transform="translate(-20.673 -15.065)" fill="#6b6b6b"/>
    <path id="Path_17915" data-name="Path 17915" d="M42.173,54.016a1.281,1.281,0,0,0,1.282-1.282v-7.5a1.282,1.282,0,1,0-2.565,0v7.5A1.281,1.281,0,0,0,42.173,54.016Z" transform="translate(-13.678 -15.065)" fill="#6b6b6b"/>
  </g>
</svg>
