<svg xmlns="http://www.w3.org/2000/svg" width="27.737" height="27.737" viewBox="0 0 27.737 27.737">
  <g id="Edit" transform="translate(-17 -17)">
    <g id="Group_16840" data-name="Group 16840" transform="translate(17 17)">
      <path id="Path_17910" data-name="Path 17910" d="M43.477,30.448a1.238,1.238,0,0,0-1.261,1.261v6.766a3.749,3.749,0,0,1-3.74,3.74H23.262a3.749,3.749,0,0,1-3.74-3.74V23.262a3.749,3.749,0,0,1,3.74-3.74h6.766a1.261,1.261,0,1,0,0-2.522H23.262A6.278,6.278,0,0,0,17,23.262V38.517a6.269,6.269,0,0,0,6.262,6.22H38.517a6.269,6.269,0,0,0,6.22-6.262V31.709A1.238,1.238,0,0,0,43.477,30.448Z" transform="translate(-17 -17)" fill="#6b6b6b"/>
      <path id="Path_17911" data-name="Path 17911" d="M47.735,19.9,36.178,31.5a1.21,1.21,0,0,0-.378.883v4.161a1.238,1.238,0,0,0,1.261,1.261h4.161a1.145,1.145,0,0,0,.883-.378l11.6-11.6a4.185,4.185,0,0,0,0-5.926A4.236,4.236,0,0,0,47.735,19.9ZM51.9,21.711a1.674,1.674,0,0,1,0,2.4L40.675,35.286h-2.4v-2.4L49.5,21.669A1.712,1.712,0,0,1,51.9,21.711Z" transform="translate(-27.899 -17.971)" fill="#6b6b6b"/>
    </g>
  </g>
</svg>
