<svg xmlns="http://www.w3.org/2000/svg" width="12.684" height="14.45" viewBox="0 0 12.684 14.45">
  <g id="File_Preview" data-name="File Preview" transform="translate(-14.861 -9.912)">
    <path id="Path_20228" data-name="Path 20228" d="M27.442,23.033a1.211,1.211,0,0,0-.36-.865L25.975,21.06V13.834a1.692,1.692,0,0,0-.15-.7.013.013,0,0,0,0-.007,1.7,1.7,0,0,0-.349-.5L23.36,10.512a1.712,1.712,0,0,0-.5-.347.006.006,0,0,1-.006,0s-.006,0-.009,0a1.686,1.686,0,0,0-.694-.147H16.672a1.713,1.713,0,0,0-1.711,1.711V21.76a1.713,1.713,0,0,0,1.711,1.711h7.591a1.722,1.722,0,0,0,.559-.1l.527.527a1.227,1.227,0,0,0,2.095-.868ZM24.829,12.938l-1.521.023a.243.243,0,0,1-.175-.07.246.246,0,0,1-.073-.175V11.169l1.771,1.771Zm-8.156,9.852a1.034,1.034,0,0,1-1.033-1.033V11.721a1.034,1.034,0,0,1,1.033-1.033h5.479a1.006,1.006,0,0,1,.23.026v2a.92.92,0,0,0,.922.922h.014l1.956-.029a1.044,1.044,0,0,1,.025.225v6.547l-1.325-1.325a3.775,3.775,0,1,0-1.732,1.734l2,2H16.672ZM20.584,20.5a3.1,3.1,0,1,1,2.189-.906A3.075,3.075,0,0,1,20.584,20.5Zm6.02,2.923a.548.548,0,0,1-.774,0l-2.994-2.994a3.6,3.6,0,0,0,.417-.356,3.9,3.9,0,0,0,.356-.419l3,2.994a.546.546,0,0,1,0,.773Z" transform="translate(0 0)" fill="#646768" stroke="#646768" stroke-width="0.2"/>
    <path id="Path_20229" data-name="Path 20229" d="M46.01,38.482a.339.339,0,0,0,.063.675,1.279,1.279,0,0,1,1.215.955.337.337,0,0,0,.317.217.317.317,0,0,0,.121-.023.339.339,0,0,0,.194-.438,1.966,1.966,0,0,0-1.909-1.387Z" transform="translate(-25.266 -23.395)" fill="#646768" stroke="#646768" stroke-width="0.2"/>
  </g>
</svg>
