<svg xmlns="http://www.w3.org/2000/svg" width="13.206" height="12.947" viewBox="0 0 13.206 12.947">
  <g id="Manage_Workflow" data-name="Manage Workflow" transform="translate(-3.4 -3.889)">
    <path id="Path_20234" data-name="Path 20234" d="M18,21.432h-.714a.653.653,0,0,1-.654-.649v-.3a.135.135,0,0,0-.088-.121.138.138,0,0,0-.152.021l-.216.215a.659.659,0,0,1-.925,0l-.5-.5a.646.646,0,0,1,0-.918l.216-.215a.131.131,0,0,0,.024-.145.138.138,0,0,0-.124-.093h-.3a.653.653,0,0,1-.654-.649v-.709a.652.652,0,0,1,.654-.649h.3a.136.136,0,0,0,.122-.088.134.134,0,0,0-.021-.15l-.216-.215a.647.647,0,0,1,0-.918l.5-.5a.673.673,0,0,1,.925,0l.216.215a.134.134,0,0,0,.146.023.137.137,0,0,0,.094-.123v-.3a.653.653,0,0,1,.654-.649H18a.653.653,0,0,1,.654.649v.3a.135.135,0,0,0,.088.121.137.137,0,0,0,.152-.021l.216-.215a.673.673,0,0,1,.925,0l.5.5a.647.647,0,0,1,0,.918l-.216.215a.131.131,0,0,0-.023.145.138.138,0,0,0,.124.093h.3a.652.652,0,0,1,.654.649v.709a.653.653,0,0,1-.654.649h-.3a.135.135,0,0,0-.122.088.133.133,0,0,0,.021.15l.216.215a.646.646,0,0,1,0,.918l-.5.5a.659.659,0,0,1-.925,0l-.216-.215a.131.131,0,0,0-.146-.023l-.006,0a.137.137,0,0,0-.088.121v.3A.653.653,0,0,1,18,21.432Zm-1.52-1.606a.682.682,0,0,1,.258.051.654.654,0,0,1,.418.6v.3a.129.129,0,0,0,.13.129H18a.13.13,0,0,0,.13-.129v-.3a.653.653,0,0,1,.413-.6l.015-.006a.659.659,0,0,1,.706.14l.216.215a.131.131,0,0,0,.184,0l.5-.5a.128.128,0,0,0,0-.182l-.216-.215a.646.646,0,0,1-.144-.7l.011-.025a.655.655,0,0,1,.6-.4h.3a.13.13,0,0,0,.13-.129v-.709a.13.13,0,0,0-.13-.129h-.3a.657.657,0,0,1-.607-.41.648.648,0,0,1,.135-.716l.216-.215a.129.129,0,0,0,0-.183l-.5-.5a.13.13,0,0,0-.184,0l-.216.215a.671.671,0,0,1-1.135-.468v-.3a.13.13,0,0,0-.13-.129h-.714a.13.13,0,0,0-.13.129v.3a.653.653,0,0,1-.414.6.661.661,0,0,1-.721-.135l-.216-.215a.131.131,0,0,0-.184,0l-.5.5a.129.129,0,0,0,0,.183l.216.215a.647.647,0,0,1,.137.711.659.659,0,0,1-.609.415h-.3a.13.13,0,0,0-.13.129v.709a.13.13,0,0,0,.13.129h.3a.657.657,0,0,1,.607.41.649.649,0,0,1-.136.716l-.216.215a.128.128,0,0,0,0,.182l.5.5a.131.131,0,0,0,.184,0l.216-.215a.647.647,0,0,1,.458-.187Z" transform="translate(-7.64 -7.353)" fill="#646768" stroke="#646768" stroke-width="0.2"/>
    <path id="Path_20235" data-name="Path 20235" d="M12.049,13.395a1.446,1.446,0,1,1,1.457-1.446A1.453,1.453,0,0,1,12.049,13.395Zm0-2.372a.926.926,0,1,0,.933.926A.931.931,0,0,0,12.049,11.023ZM6.565,11.3A.261.261,0,0,1,6.3,11a5.8,5.8,0,0,1,4.5-4.8.26.26,0,1,1,.112.508,5.278,5.278,0,0,0-4.09,4.364A.261.261,0,0,1,6.565,11.3Zm4.294,6.171a.277.277,0,0,1-.057-.006A5.782,5.782,0,0,1,6.29,12.553a.262.262,0,0,1,.52-.064,5.26,5.26,0,0,0,4.1,4.466.26.26,0,0,1-.056.514Zm2.161.045A.26.26,0,0,1,12.974,17,5.294,5.294,0,0,0,17.3,12.488a.262.262,0,0,1,.52.064,5.819,5.819,0,0,1-4.752,4.957.3.3,0,0,1-.046,0ZM17.541,11.3a.261.261,0,0,1-.259-.223,5.245,5.245,0,0,0-4.308-4.407.26.26,0,1,1,.09-.512A5.765,5.765,0,0,1,17.8,11a.26.26,0,0,1-.259.3Z" transform="translate(-2.046 -1.581)" fill="#646768" stroke="#646768" stroke-width="0.2"/>
    <path id="Path_20236" data-name="Path 20236" d="M8.548,6.127A.262.262,0,0,1,8.3,5.778l.339-.929L7.682,4.5a.26.26,0,0,1-.157-.333.263.263,0,0,1,.336-.156l1.2.433a.258.258,0,0,1,.157.333L8.795,5.955a.262.262,0,0,1-.247.172ZM15.607,9.84a.26.26,0,0,1-.129-.034l-1.092-.618a.258.258,0,0,1-.1-.355.263.263,0,0,1,.357-.1l.865.49.505-.879a.263.263,0,0,1,.357-.1.258.258,0,0,1,.1.355l-.635,1.1a.263.263,0,0,1-.228.131Zm-3.842,6.9a.262.262,0,0,1-.168-.061l-.982-.817a.259.259,0,0,1-.032-.366l.808-.956a.264.264,0,0,1,.369-.032.259.259,0,0,1,.033.366l-.64.757.781.65a.259.259,0,0,1,.033.366A.265.265,0,0,1,11.765,16.736Zm-8-4.607a.261.261,0,0,1-.212-.413l.754-1.028a.263.263,0,0,1,.366-.057l1.017.734a.259.259,0,0,1,.058.363.264.264,0,0,1-.366.057L4.577,11.2l-.6.818a.262.262,0,0,1-.212.107Z" transform="translate(0)" fill="#646768" stroke="#646768" stroke-width="0.2"/>
  </g>
</svg>
