<svg xmlns="http://www.w3.org/2000/svg" width="24.937" height="29" viewBox="0 0 24.937 29">
  <g id="Manage_Permission" data-name="Manage Permission" transform="translate(-15.301 -9.5)">
    <path id="Path_17908" data-name="Path 17908" d="M44.023,16.973a6.973,6.973,0,1,0-6.973,6.973A6.98,6.98,0,0,0,44.023,16.973Zm-12.9,0A5.923,5.923,0,1,1,37.051,22.9,5.93,5.93,0,0,1,31.128,16.973Z" transform="translate(-9.28)" fill="#6b6b6b" stroke="#6b6b6b" stroke-width="1"/>
    <path id="Path_17909" data-name="Path 17909" d="M15.8,60.451v1.862a3.5,3.5,0,0,0,3.5,3.5H36.238a3.5,3.5,0,0,0,3.5-3.5V60.451a7.671,7.671,0,0,0-7.662-7.662H23.463A7.671,7.671,0,0,0,15.8,60.451Zm7.664-6.612h8.613a6.617,6.617,0,0,1,6.612,6.612v1.862a2.453,2.453,0,0,1-2.45,2.45H19.3a2.453,2.453,0,0,1-2.45-2.45V60.451A6.617,6.617,0,0,1,23.465,53.839Z" transform="translate(0 -27.813)" fill="#6b6b6b" stroke="#6b6b6b" stroke-width="1"/>
  </g>
</svg>
