<svg xmlns="http://www.w3.org/2000/svg" width="13.251" height="13.248" viewBox="0 0 13.251 13.248">
  <g id="Manage_Permission" data-name="Manage Permission" transform="translate(-1.25 -1.25)">
    <path id="Path_20232" data-name="Path 20232" d="M6.95,12.965H2.3a.123.123,0,0,1-.123-.123v-.893A1.748,1.748,0,0,1,3.1,10.6,8.225,8.225,0,0,1,7.566,9.483c.3,0,.6.012.888.035A.462.462,0,1,0,8.526,8.6q-.479-.038-.961-.038A9.17,9.17,0,0,0,2.582,9.838a2.638,2.638,0,0,0-1.332,2.11v.894A1.047,1.047,0,0,0,2.3,13.889H6.95a.462.462,0,0,0,0-.924ZM7.566,1.25a3.389,3.389,0,1,0,3.389,3.389A3.39,3.39,0,0,0,7.566,1.25Zm0,.924A2.465,2.465,0,1,1,5.1,4.639,2.466,2.466,0,0,1,7.566,2.174Zm4.1,10.757a2.466,2.466,0,1,0-2.07-2.07l-1.431,1.43a.462.462,0,0,0-.136.327v1.417a.462.462,0,0,0,.462.462H9.907a.462.462,0,0,0,.327-.136Zm-.032-.949a.462.462,0,0,0-.445.12L9.716,13.573H8.952V12.81l1.471-1.471a.462.462,0,0,0,.12-.445,1.539,1.539,0,1,1,1.089,1.089Z" fill="#646768" fill-rule="evenodd"/>
    <path id="Path_20233" data-name="Path 20233" d="M17.853,16.3a.669.669,0,1,1,.934-.01A.669.669,0,0,1,17.853,16.3Z" transform="translate(-6.293 -5.335)" fill="#646768" fill-rule="evenodd"/>
  </g>
</svg>
