<svg xmlns="http://www.w3.org/2000/svg" width="32.354" height="32.353" viewBox="0 0 32.354 32.353">
  <g id="Manage_Workflow" data-name="Manage Workflow" transform="translate(-5.987 -5.99)">
    <g id="Group_16841" data-name="Group 16841" transform="translate(6.247 6.25)">
      <path id="Path_17916" data-name="Path 17916" d="M46.964,71.413a.572.572,0,0,0,.91-.455V69.53a14.251,14.251,0,0,0,10.374-8.7.568.568,0,0,0-1.057-.416A13.124,13.124,0,0,1,47.215,68.5a.607.607,0,0,0-.477.561v.762l-3.031-2.274,3.031-2.274a3.6,3.6,0,0,0,.014.432.585.585,0,0,0,.777.4A10.836,10.836,0,0,0,55.07,59.6a.568.568,0,1,0-1.056-.419,9.727,9.727,0,0,1-6.139,5.667v-.7a.572.572,0,0,0-.91-.455L42.418,67.1a.568.568,0,0,0,0,.91l4.548,3.411Z" transform="translate(-29.114 -39.694)" fill="#6a6a6a" stroke="#6a6a6a" stroke-width="0.5"/>
      <path id="Path_17917" data-name="Path 17917" d="M6.817,47.9H8.245a14.058,14.058,0,0,0,8.912,10.414.57.57,0,0,0,.209-1.1,13.125,13.125,0,0,1-8.089-9.976.607.607,0,0,0-.561-.477H7.954l2.274-3.031L12.5,46.758a3.607,3.607,0,0,0-.432.014.6.6,0,0,0-.431.679,10.852,10.852,0,0,0,6.541,7.64.568.568,0,0,0,.419-1.056A9.727,9.727,0,0,1,12.932,47.9h.7a.572.572,0,0,0,.455-.91l-3.411-4.548a.588.588,0,0,0-.91,0L6.36,46.987a.572.572,0,0,0,.455.91Z" transform="translate(-6.247 -29.137)" fill="#6a6a6a" stroke="#6a6a6a" stroke-width="0.5"/>
      <path id="Path_17918" data-name="Path 17918" d="M13.922,17.687a.569.569,0,0,0,.738-.32,13.106,13.106,0,0,1,7.361-7.36,15.306,15.306,0,0,1,2.716-.767.59.59,0,0,0,.377-.534v-.75l3.031,2.274L25.113,12.5a4.087,4.087,0,0,0-.014-.441.594.594,0,0,0-.554-.432,9.59,9.59,0,0,0-3.125,1.192,10.808,10.808,0,0,0-4.64,5.359.569.569,0,1,0,1.057.419,9.737,9.737,0,0,1,6.139-5.669v.708a.572.572,0,0,0,.91.455l4.548-3.411a.568.568,0,0,0,0-.91L24.886,6.364a.572.572,0,0,0-.91.455V8.247a13.7,13.7,0,0,0-2.375.7,14.25,14.25,0,0,0-8,8,.569.569,0,0,0,.32.738Z" transform="translate(-10.901 -6.25)" fill="#6a6a6a" stroke="#6a6a6a" stroke-width="0.5"/>
      <path id="Path_17919" data-name="Path 17919" d="M59.182,17.834a9.737,9.737,0,0,1,5.669,6.139h-.708a.572.572,0,0,0-.455.91L67.1,29.431a.573.573,0,0,0,.91,0l3.411-4.548a.572.572,0,0,0-.455-.91H69.536a14.251,14.251,0,0,0-8.7-10.374.568.568,0,0,0-.416,1.057,13.125,13.125,0,0,1,8.089,9.976.589.589,0,0,0,.56.477c.011,0,.749,0,.763,0l-2.274,3.031L65.281,25.11a3.238,3.238,0,0,0,.441-.014.582.582,0,0,0,.429-.567,9.592,9.592,0,0,0-1.189-3.112,10.808,10.808,0,0,0-5.359-4.64.569.569,0,0,0-.419,1.057Z" transform="translate(-39.699 -10.899)" fill="#6a6a6a" stroke="#6a6a6a" stroke-width="0.5"/>
      <path id="Path_17920" data-name="Path 17920" d="M32.846,42.492l.8.8a1.189,1.189,0,0,0,1.8-.188,5.58,5.58,0,0,0,.919.382v.264A1.138,1.138,0,0,0,37.5,44.892H38.64a1.187,1.187,0,0,0,1.137-1.4,5.579,5.579,0,0,0,.919-.382,1.19,1.19,0,0,0,1.8.188l.8-.8a1.19,1.19,0,0,0-.188-1.8,5.58,5.58,0,0,0,.382-.919h.264a1.138,1.138,0,0,0,1.137-1.137V37.5a1.138,1.138,0,0,0-1.137-1.137h-.264a5.578,5.578,0,0,0-.382-.919,1.19,1.19,0,0,0,.188-1.8l-.8-.8a1.19,1.19,0,0,0-1.8.188,5.579,5.579,0,0,0-.919-.382v-.264A1.138,1.138,0,0,0,38.64,31.25H37.5a1.138,1.138,0,0,0-1.137,1.137v.264a5.578,5.578,0,0,0-.919.382,1.188,1.188,0,0,0-1.8-.188l-.8.8a1.19,1.19,0,0,0,.188,1.8,5.58,5.58,0,0,0-.382.919h-.264A1.138,1.138,0,0,0,31.25,37.5V38.64a1.138,1.138,0,0,0,1.137,1.137h.264a5.579,5.579,0,0,0,.382.919,1.19,1.19,0,0,0-.188,1.8Zm-.459-3.853V37.5c.436-.02,1.126.141,1.253-.442a4.514,4.514,0,0,1,.584-1.405.568.568,0,0,0-.08-.7l-.5-.5.8-.8.5.5a.568.568,0,0,0,.7.08,4.514,4.514,0,0,1,1.405-.584c.584-.128.422-.823.442-1.253h1.137c.02.436-.141,1.126.442,1.253a4.514,4.514,0,0,1,1.405.584.566.566,0,0,0,.7-.08l.5-.5.8.8-.5.5a.57.57,0,0,0-.08.7,4.514,4.514,0,0,1,.584,1.405c.128.584.823.422,1.253.442v1.137h-.7a.567.567,0,0,0-.554.442,4.514,4.514,0,0,1-.584,1.405.568.568,0,0,0,.08.7l.5.5-.8.8c-.318-.293-.7-.9-1.2-.574a4.514,4.514,0,0,1-1.405.584.567.567,0,0,0-.442.554v.7H37.5v-.7a.567.567,0,0,0-.442-.554,4.514,4.514,0,0,1-1.405-.584c-.5-.324-.885.286-1.2.576l-.8-.8.5-.5a.57.57,0,0,0,.08-.7,4.514,4.514,0,0,1-.584-1.405c-.128-.584-.823-.422-1.253-.442Z" transform="translate(-22.154 -22.155)" fill="#6a6a6a" stroke="#6a6a6a" stroke-width="0.5"/>
      <path id="Path_17921" data-name="Path 17921" d="M44.035,47.437a3.427,3.427,0,0,0,3.3-4.293.568.568,0,0,0-1.1.287,2.274,2.274,0,1,1-1.6-1.6.568.568,0,0,0,.287-1.1,3.411,3.411,0,1,0-.883,6.706Z" transform="translate(-28.118 -28.11)" fill="#6a6a6a" stroke="#6a6a6a" stroke-width="0.5"/>
    </g>
  </g>
</svg>
