<svg xmlns="http://www.w3.org/2000/svg" width="12.714" height="13.549" viewBox="0 0 12.714 13.549">
  <g id="Rename_Folder" data-name="Rename Folder" transform="translate(0.15 0.15)" opacity="0.98">
    <path id="Path_20253" data-name="Path 20253" d="M11.316,46.2a.319.319,0,0,0-.305.332v2.944a.959.959,0,0,1-.916.995H1.527a.959.959,0,0,1-.916-.995V40.83a.959.959,0,0,1,.916-.995H4.238a.333.333,0,0,0,0-.663H1.527A1.6,1.6,0,0,0,0,40.83v8.642A1.6,1.6,0,0,0,1.527,51.13h8.568a1.6,1.6,0,0,0,1.527-1.658V46.527A.319.319,0,0,0,11.316,46.2Zm0,0" transform="translate(0 -37.882)" fill="#646768" stroke="#646768" stroke-width="0.3"/>
    <path id="Path_20254" data-name="Path 20254" d="M117.091.7a1.492,1.492,0,0,0-2.11,0l-5.916,5.916a.331.331,0,0,0-.085.146L108.2,9.569a.332.332,0,0,0,.408.408l2.809-.778a.331.331,0,0,0,.146-.085L117.481,3.2a1.494,1.494,0,0,0,0-2.11Zm-7.3,6.132,4.842-4.842,1.562,1.562-4.842,4.842Zm-.312.626L110.723,8.7,109,9.181Zm7.536-4.727-.352.352L115.1,1.518l.352-.352a.829.829,0,0,1,1.172,0l.389.389a.83.83,0,0,1,0,1.173Zm0,0" transform="translate(-105.602 -0.26)" fill="#646768" stroke="#646768" stroke-width="0.3"/>
  </g>
</svg>
