<svg xmlns="http://www.w3.org/2000/svg" width="12" height="13.714" viewBox="0 0 12 13.714">
  <g id="Rvoke_Access" data-name="Rvoke Access" transform="translate(-32 0)">
    <path id="Path_20230" data-name="Path 20230" d="M146,155.946A2.946,2.946,0,1,0,148.946,153,2.95,2.95,0,0,0,146,155.946Zm4.821,0a1.874,1.874,0,0,1-2.767,1.649l2.541-2.541A1.864,1.864,0,0,1,150.821,155.946Zm-3.524.892a1.874,1.874,0,0,1,2.541-2.541Z" transform="translate(-110.946 -148.901)" fill="#646768"/>
    <path id="Path_20231" data-name="Path 20231" d="M43.68,2.456,38.189.046a.536.536,0,0,0-.432,0L32.319,2.457a.536.536,0,0,0-.319.49V7.179a6.9,6.9,0,0,0,1.734,4.486,6.265,6.265,0,0,0,1.9,1.48,5.254,5.254,0,0,0,2.366.57,5.431,5.431,0,0,0,3.208-1.067.536.536,0,1,0-.63-.866A4.366,4.366,0,0,1,38,12.643c-2.579,0-4.929-2.6-4.929-5.464V3.3l4.9-2.174L42.929,3.3V7.179a5.672,5.672,0,0,1-.82,2.887.536.536,0,1,0,.921.547A6.743,6.743,0,0,0,44,7.179V2.947a.536.536,0,0,0-.32-.49Z" transform="translate(0 0)" fill="#646768"/>
  </g>
</svg>
