<svg xmlns="http://www.w3.org/2000/svg" width="32.533" height="23.4" viewBox="0 0 32.533 23.4">
  <g id="View" transform="translate(-208.084 -105.049)">
    <path id="Path_17912" data-name="Path 17912" d="M38.162,28.889a17.4,17.4,0,0,0-31.622,0,3.319,3.319,0,0,0,0,2.719,17.395,17.395,0,0,0,31.622,0A3.319,3.319,0,0,0,38.162,28.889Zm-2.1,1.771h0a15.093,15.093,0,0,1-27.428,0,1.015,1.015,0,0,1,0-.824,15.093,15.093,0,0,1,27.428,0,1.015,1.015,0,0,1,0,.824ZM22.35,23.349a6.906,6.906,0,1,0,4.878,2.023,6.9,6.9,0,0,0-4.878-2.023Zm0,11.5A4.6,4.6,0,1,1,25.6,33.5,4.6,4.6,0,0,1,22.35,34.85Z" transform="translate(202 86.5)" fill="#6b6b6b" stroke="#6b6b6b" stroke-width="0.3"/>
  </g>
</svg>
